<svg width="35" height="35" viewBox="0 0 35 35" fill="none" xmlns="http://www.w3.org/2000/svg">
<path id="news-vector" d="M10.2083 24.5H29.1667V26.25H10.2083V24.5ZM29.1667 19.25H10.2083V21H29.1667V19.25ZM29.1667 8.75H21.875V10.5H29.1667V8.75ZM29.1667 14H21.875V15.75H29.1667V14ZM4.375 0V30.0982C4.375 31.4475 2.91667 31.4475 2.91667 30.0982V3.5H0V31.465C0 33.4163 1.31979 35 2.94583 35H32.0513C33.6802 35 35 33.418 35 31.465V0H4.375ZM32.0833 29.75H7.29167V3.5H32.0833V29.75ZM18.9583 8.75H10.2083V15.75H18.9583V8.75Z" fill="#B8B8B8"/>
</svg>
