<svg width="50" height="30" viewBox="0 0 50 30" fill="none" xmlns="http://www.w3.org/2000/svg">
<path id="people-vector" d="M37.4937 30H12.5042L12.5 28.4425C12.5 25.295 12.7083 23.4775 15.8083 22.6175C19.3167 21.645 22.775 20.7775 21.1104 17.095C16.1813 6.1875 19.7062 0 24.9979 0C30.1875 0 33.8021 5.9575 28.8854 17.0975C27.2708 20.7575 30.6063 21.6275 34.1875 22.62C37.2917 23.48 37.4979 25.3 37.4979 28.4525L37.4937 30ZM47.5167 24.465C44.8292 23.72 42.3292 23.0675 43.5396 20.3225C47.225 11.9675 44.5167 7.5 40.6229 7.5C37.9875 7.5 35.9396 9.5425 35.9396 13.31C35.9396 23.0675 40.6646 17.735 40.6187 30H49.9958L50 28.8425C50 26.4775 49.8458 25.11 47.5167 24.465ZM0.00416667 30H9.38125C9.3375 17.735 14.0604 23.07 14.0604 13.31C14.0604 9.5425 12.0125 7.5 9.37708 7.5C5.48333 7.5 2.775 11.9675 6.4625 20.3225C7.67292 23.07 5.17292 23.72 2.48542 24.465C0.154167 25.11 0 26.4775 0 28.8425L0.00416667 30Z" fill="#B8B8B8"/>
</svg>
