<svg width="453" height="332" viewBox="0 0 453 332" fill="none" xmlns="http://www.w3.org/2000/svg">
<g id="walletsvg">
<path id="Vector" d="M453 328.247H0V332H453V328.247Z" fill="#85848B"/>
<path id="Vector_2" d="M358.894 261.988C358.894 264.875 344.051 273.29 326.42 273.29C308.789 273.29 295.051 264.875 295.051 261.988C295.051 259.102 309.342 260.031 326.99 260.031C344.638 260.031 358.894 259.097 358.894 261.988Z" fill="#504F60"/>
<path id="Vector_3" d="M181.337 209.022C184.199 209.438 187.168 209.702 189.909 208.694C190.34 208.543 190.815 208.205 190.772 207.716C190.741 207.538 190.675 207.371 190.578 207.227C189.545 205.47 188.677 203.596 187.988 201.635C187.961 201.532 187.905 201.443 187.829 201.38C187.739 201.344 187.642 201.344 187.552 201.38C186.288 201.757 185.196 202.682 183.94 203.078C183.299 203.277 182.631 203.333 181.972 203.244C181.402 203.171 180.625 202.637 180.107 202.706C180.401 204.844 181.117 206.84 181.337 209.022Z" fill="#8CFF79"/>
<path id="Vector_4" d="M235.456 203.606C237.342 202.138 239.297 200.597 240.411 198.332C240.49 198.197 240.536 198.04 240.544 197.877C240.525 197.717 240.47 197.566 240.385 197.437C239.324 195.525 237.958 193.855 236.358 192.51C235.523 193.179 234.768 193.968 234.113 194.858C233.639 195.426 232.327 196.326 232.314 197.192C232.314 197.681 232.814 198.249 233.047 198.66C233.362 199.188 233.66 199.726 233.945 200.274C234.109 200.544 235.607 203.499 235.456 203.606Z" fill="#8CFF79"/>
<path id="Vector_5" d="M192.555 215.573C192.588 216.077 192.466 216.579 192.209 216.992C192.008 217.222 191.758 217.39 191.484 217.481C187.483 219.106 182.852 217.08 178.86 218.68C178.04 219.008 177.263 219.482 176.439 219.795C175.456 220.13 174.442 220.334 173.417 220.402C172.006 220.554 170.586 220.652 169.17 220.696C168.095 220.782 167.014 220.675 165.968 220.378C165.445 220.226 164.956 219.951 164.533 219.571C164.11 219.191 163.762 218.714 163.512 218.171C163.295 217.685 163.252 217.122 163.391 216.601C163.454 216.422 163.543 216.256 163.655 216.111C163.925 215.767 164.243 215.475 164.595 215.245L166.067 214.169C166.757 213.616 167.507 213.165 168.299 212.829C168.881 212.613 169.498 212.52 170.09 212.339C172.157 211.654 173.737 209.795 175.204 208.009L177.207 205.588C177.394 205.321 177.631 205.106 177.902 204.956C178.179 204.851 178.475 204.82 178.765 204.864C180.71 205.021 182.589 205.735 184.225 206.938C184.643 207.293 185.094 207.595 185.571 207.838C186.745 208.357 188.252 207.965 189.335 207.31C189.848 206.997 189.736 206.821 189.952 206.263C190.168 205.705 190.694 205.348 191.152 205.857C191.29 206.033 191.388 206.244 191.437 206.473C191.868 208.088 191.704 209.825 191.704 211.517C191.692 211.782 191.721 212.047 191.791 212.3C191.901 212.555 192.032 212.798 192.183 213.024C192.214 213.084 192.242 213.146 192.265 213.21C192.529 213.96 192.629 214.771 192.555 215.573Z" fill="#514E7F"/>
<path id="Vector_6" d="M192.555 215.573C192.588 216.077 192.466 216.579 192.209 216.992C192.008 217.222 191.758 217.39 191.484 217.481C187.483 219.106 182.852 217.08 178.86 218.68C178.04 219.008 177.263 219.482 176.439 219.795C175.456 220.13 174.442 220.334 173.417 220.402C172.006 220.554 170.586 220.652 169.17 220.696C168.095 220.782 167.014 220.675 165.968 220.378C165.445 220.226 164.956 219.951 164.533 219.571C164.11 219.191 163.762 218.714 163.512 218.171C163.295 217.685 163.252 217.122 163.391 216.601C163.454 216.422 163.543 216.256 163.655 216.111C163.888 216.664 164.056 217.398 164.203 217.662C164.401 218.054 164.671 218.393 164.994 218.657C165.317 218.921 165.686 219.104 166.076 219.194C166.66 219.234 167.246 219.15 167.802 218.944C171.428 217.927 175.282 217.912 178.765 216.371C179.96 215.837 181.1 215.128 182.356 214.805C183.612 214.482 184.945 214.57 186.24 214.448C188.286 214.262 190.267 213.562 192.283 213.195C192.543 213.951 192.636 214.767 192.555 215.573Z" fill="#464353"/>
<path id="Vector_7" d="M244.619 203.308C244.429 205.03 243.466 206.512 242.409 207.77C241.351 209.027 240.156 210.157 239.314 211.606C238.278 213.401 237.812 215.627 236.466 217.144C235.949 217.695 235.368 218.164 234.739 218.538C234.035 219.009 233.29 219.398 232.517 219.698C230.505 220.427 228.339 220.26 226.237 220.084C225.554 220.077 224.879 219.929 224.243 219.649C223.953 219.482 223.676 219.289 223.414 219.071C222.887 218.704 222.444 218.201 222.119 217.604C221.96 217.279 221.915 216.898 221.994 216.537C222.114 216.14 222.32 215.783 222.594 215.5C223.067 214.942 223.575 214.424 224.113 213.949C224.852 213.409 225.518 212.749 226.09 211.992C226.441 211.394 226.699 210.732 226.854 210.035C227.16 208.814 227.346 207.559 227.411 206.292C227.408 205.45 227.485 204.611 227.639 203.787C227.959 202.496 228.805 201.341 228.71 200.005C228.671 199.814 228.686 199.614 228.753 199.433C228.853 199.291 228.994 199.193 229.15 199.154C229.81 198.856 230.505 198.673 231.213 198.611C231.568 198.583 231.924 198.645 232.256 198.792C232.587 198.94 232.885 199.168 233.129 199.462C233.423 199.864 233.617 200.441 234.049 200.597C234.263 200.664 234.487 200.674 234.705 200.627C235.766 200.504 236.889 200.353 237.726 199.575C238.113 199.181 238.424 198.701 238.639 198.165C238.855 197.629 238.97 197.048 238.978 196.458C238.978 196.013 238.801 195.548 239.409 195.48C239.867 195.411 240.229 195.969 240.462 196.312C241.304 197.589 242.167 198.924 242.482 200.48C242.605 200.426 242.735 200.398 242.866 200.397C243.136 200.394 243.401 200.465 243.641 200.604C243.881 200.743 244.087 200.945 244.243 201.194C244.587 201.825 244.72 202.575 244.619 203.308Z" fill="#514E7F"/>
<path id="Vector_8" d="M244.619 203.308C244.429 205.03 243.466 206.512 242.409 207.77C241.351 209.027 240.156 210.157 239.314 211.605C238.278 213.401 237.812 215.627 236.466 217.144C235.949 217.695 235.368 218.164 234.739 218.538C234.035 219.009 233.29 219.398 232.517 219.698C230.505 220.427 228.339 220.26 226.237 220.084C225.554 220.077 224.879 219.929 224.243 219.649C223.953 219.482 223.676 219.289 223.414 219.071C222.887 218.704 222.444 218.201 222.119 217.604C222.524 217.383 222.965 217.263 223.414 217.251C224.346 217.31 225.028 218.308 225.922 218.616C227.195 219.052 228.464 218.034 229.754 217.687C230.596 217.462 231.481 217.521 232.314 217.198C233.008 216.893 233.649 216.453 234.208 215.896C234.975 215.275 235.657 214.53 236.233 213.685C236.711 212.84 237.109 211.939 237.42 210.999C238.101 209.197 238.903 207.456 239.819 205.793C239.955 205.53 240.119 205.287 240.307 205.069C240.51 204.859 240.739 204.712 240.967 204.526C241.83 203.787 242.189 202.569 242.491 201.375C242.573 201.012 242.687 200.66 242.832 200.323C243.101 200.321 243.367 200.392 243.606 200.531C243.846 200.67 244.053 200.872 244.209 201.121C244.58 201.767 244.726 202.546 244.619 203.308Z" fill="#464353"/>
<path id="Vector_9" d="M154.116 50.7694C155.19 51.682 156.075 52.8512 156.706 54.1942C157.31 55.5347 160.793 65.9362 160.59 67.4479C161.725 66.1514 166.201 65.9411 167.349 64.6445C167.828 64.1015 170.413 61.391 170.802 60.7599C171.19 60.1288 174.073 58.8029 174.388 58.1375C175.567 55.7451 166.033 46.6793 167.254 44.3162C167.322 44.2076 167.357 44.0772 167.353 43.9444C167.326 43.8328 167.27 43.7327 167.194 43.6557C166.412 42.7506 165.377 42.188 164.436 41.5177C163.495 40.8474 162.588 39.913 162.334 38.6801C161.437 39.1482 160.613 39.7796 159.895 40.549C158.146 42.2483 156.427 43.9819 154.738 45.7497C154.077 46.4445 152.8 47.3691 152.493 48.3623C152.131 49.4289 153.486 50.1872 154.116 50.7694Z" fill="#A1616A"/>
<path id="Vector_10" d="M169.55 46.9191C168.087 48.0333 166.72 49.3012 165.467 50.7059C164.285 52.0317 163.163 53.568 162.878 55.4222C162.757 56.1512 162.774 56.89 162.675 57.6287C162.243 60.8333 159.8 63.1817 158.721 66.1808C158.409 67.1065 158.179 68.0653 158.035 69.0429C157.732 70.8962 157.566 72.7749 157.539 74.6595C157.513 76.4844 159.093 77.7418 159.671 79.4444C160.249 81.147 160.405 82.8985 160.698 84.6451C161.251 87.9427 162.265 91.1228 163.288 94.2833C165.415 100.947 172.312 119.367 174.44 126.036C180.962 124.181 198.321 119.92 204.096 116.011C206.021 114.71 190.738 100.027 192.796 99.0144C192.914 98.9936 193.026 98.9421 193.123 98.864C193.22 98.7858 193.3 98.6831 193.356 98.564C193.412 98.4449 193.443 98.3127 193.446 98.1777C193.449 98.0427 193.425 97.9088 193.375 97.7864C191.316 87.5806 184.876 79.1949 181.954 69.2582C180.94 65.809 179.119 62.8637 177.738 59.5857C176.486 56.616 175.817 53.3331 174.319 50.5102C174.037 49.9286 173.668 49.4071 173.227 48.969C172.854 48.6444 172.45 48.3671 172.023 48.1422C171.169 47.6725 170.375 47.3936 169.55 46.9191Z" fill="#514E7F"/>
<path id="Vector_11" d="M154.461 49.61C160.099 49.61 164.669 44.4296 164.669 38.0392C164.669 31.6488 160.099 26.4684 154.461 26.4684C148.824 26.4684 144.254 31.6488 144.254 38.0392C144.254 44.4296 148.824 49.61 154.461 49.61Z" fill="#A1616A"/>
<path id="Vector_12" d="M164.846 43.4748C165.354 42.9429 165.993 42.5983 166.678 42.4865C167.363 42.3747 168.062 42.5009 168.683 42.8485C169.373 43.2546 169.978 44.0765 169.822 44.9376L174.885 45.0257C175.691 45.0007 176.496 45.0844 177.285 45.2752C178.078 45.471 178.786 45.9745 179.287 46.6989C179.348 46.7919 179.417 46.9044 179.52 46.9191C179.604 46.9206 179.687 46.8895 179.753 46.831C180.532 46.3882 181.409 46.2179 182.274 46.3418C185.01 46.5423 187.539 48.0933 189.684 50.0307C190.071 50.3321 190.371 50.7558 190.548 51.2489C190.725 51.8996 190.513 52.7167 190.979 53.1815C190.979 58.5632 192.611 63.5927 193.698 68.8375C193.893 69.7719 194.682 70.5988 195.23 71.3326C195.908 72.1462 196.461 73.0821 196.866 74.1018C197.79 76.822 196.517 80.0217 197.414 82.7517C197.794 83.9064 198.528 84.8555 199.141 85.8585C199.949 87.0166 200.459 88.4047 200.617 89.8703C200.656 90.5259 200.582 91.1864 200.617 91.8273C200.675 92.7088 200.82 93.5802 201.048 94.4252C201.417 96.0039 201.802 97.5809 202.205 99.1563C202.861 101.7 203.716 104.445 205.727 105.8C200.872 106.735 195.753 107.65 191.126 105.737C190.481 105.487 189.868 105.14 189.305 104.704C187.634 103.354 186.827 101.045 186.106 98.8627C185.304 96.4165 184.488 93.9262 184.324 91.3234C184.326 90.4956 184.222 89.6718 184.017 88.8771C183.547 87.4583 182.291 86.6021 181.152 85.8144C179.865 85.0152 178.699 83.9879 177.699 82.7713C177.202 82.1586 176.822 81.4369 176.582 80.6509C176.341 79.8649 176.245 79.0313 176.3 78.2017C176.387 77.3944 176.667 76.6165 176.693 75.8044C176.719 74.9922 176.4 74.0627 175.713 73.8474C172.179 72.6341 170.491 67.8883 169.706 63.7982C169.367 61.6842 169.215 59.5372 169.252 57.389L169.205 53.2157C168.717 52.7127 168.325 52.1023 168.052 51.4219C167.779 50.7414 167.631 50.0051 167.617 49.2577C167.664 48.8216 167.656 48.3803 167.595 47.9465C167.424 47.4163 167.146 46.9388 166.784 46.5521C166.003 45.6442 165.35 44.6064 164.846 43.4748Z" fill="#464353"/>
<path id="Vector_13" d="M153.974 56.7041C153.857 57.9957 154.116 59.3215 153.862 60.5887C153.762 61.078 153.59 61.5672 153.464 62.0222C153.082 63.846 153.247 65.7625 153.935 67.4676C154.621 69.1558 155.444 70.769 156.391 72.2867C156.711 72.8048 156.975 73.365 157.176 73.955C157.339 74.5746 157.441 75.213 157.478 75.8582C157.728 78.449 158.129 81.0183 158.678 83.5492C159.162 85.741 164.652 104.479 165.929 106.216C166.161 106.601 166.512 106.872 166.913 106.974C167.202 106.987 167.489 106.92 167.75 106.779L170.34 105.653C170.56 105.577 170.764 105.451 170.94 105.282C171.183 104.96 171.315 104.55 171.311 104.127C171.497 101.739 165.994 82.8691 165.295 80.6137C163.18 73.8033 160.366 67.2376 158.989 60.1875C158.605 58.2305 158.402 55.2167 157.137 53.656C156.615 53.0102 156.792 53.2842 156.166 53.6218C155.85 53.7773 155.544 53.9588 155.251 54.1648C154.885 54.4535 154.58 54.8313 154.359 55.2706C154.138 55.7099 154.006 56.1997 153.974 56.7041Z" fill="#464353"/>
<path id="Vector_14" d="M161.833 69.6252C162.528 73.7887 163.245 77.9424 163.957 82.1059L174.091 79.097C174.173 77.8935 173.607 76.778 173.227 75.6723C172.304 73.045 172.282 70.1193 171.536 67.4186C170.97 65.3638 169.986 63.4753 169.455 61.4058C169.149 60.2022 168.993 58.9595 168.691 57.7413C168.367 56.5449 167.969 55.376 167.5 54.2431C166.931 52.6002 166.189 51.0412 165.29 49.6002C163.996 50.1481 162.614 50.7841 161.876 52.11C161.498 52.8571 161.282 53.6957 161.246 54.5563C161.069 57.1346 161.894 59.7276 161.622 62.2913C161.342 64.7328 161.413 67.2096 161.833 69.6252Z" fill="#8CFF79"/>
<path id="Vector_15" d="M174.259 125.008C174.829 127.455 174.004 130.028 173.331 132.45C172.317 136.098 171.626 139.851 171.268 143.654C171.224 144.621 171.052 145.576 170.759 146.486C170.439 147.303 169.896 147.993 169.524 148.771C168.506 150.816 168.532 153.311 168.752 155.65C168.899 157.191 169.119 158.727 169.391 160.244C169.723 162.098 170.133 164.036 169.654 165.846C170.457 165.645 171 166.824 170.949 167.749C170.897 168.674 170.634 169.706 171.026 170.504C172.019 170.915 172.028 172.461 171.997 173.659C172.014 175.738 172.246 177.807 172.688 179.824C174.19 188.011 175.784 196.175 177.47 204.316C181.117 205.598 185.377 206.933 188.856 205.157C189.503 204.829 190.151 204.306 190.297 203.513C190.335 203.086 190.288 202.655 190.159 202.251L188.51 195.45C188.109 193.807 187.708 192.109 187.919 190.421C188.079 189.164 188.562 187.808 188.018 186.698C187.833 186.316 187.539 186.018 187.324 185.656C186.46 184.222 186.914 182.304 186.983 180.567C187.01 180.178 186.986 179.785 186.914 179.403C186.795 178.957 186.63 178.528 186.422 178.126C185.059 175.128 184.405 171.78 184.522 168.41C184.574 167.98 184.522 167.542 184.371 167.142C184.267 166.978 184.173 166.804 184.091 166.624C184.027 166.31 184.059 165.98 184.182 165.689C183.687 165.264 183.24 164.771 182.852 164.222C183.092 164.053 183.294 163.825 183.444 163.554C183.594 163.284 183.688 162.979 183.719 162.661C183.75 162.343 183.717 162.022 183.622 161.721C183.527 161.42 183.373 161.148 183.172 160.924C183.348 160.884 183.51 160.789 183.642 160.65C183.773 160.512 183.868 160.334 183.916 160.138C183.964 159.942 183.963 159.735 183.913 159.539C183.863 159.344 183.766 159.168 183.633 159.031C183.422 158.864 183.141 158.791 182.99 158.541C182.757 158.179 182.947 157.675 183.137 157.289L184.143 155.229C184.894 153.698 185.062 151.804 185.869 150.337C187.026 148.199 187.781 145.816 188.528 143.458L191.432 134.373L193.388 136.295C194.039 136.859 194.585 137.564 194.993 138.37C195.271 139.166 195.447 140.003 195.515 140.855C196.232 145.787 198.968 150.063 199.982 154.921C200.207 156.002 200.358 157.137 200.906 158.062C201.102 158.346 201.278 158.647 201.433 158.962C201.575 159.443 201.65 159.947 201.653 160.454C201.743 161.448 202.021 162.408 202.468 163.269C202.915 164.13 203.52 164.872 204.242 165.445C205.205 166.193 206.4 166.707 206.923 167.891C207.027 168.258 207.172 168.608 207.354 168.933C207.82 169.569 208.826 169.643 209.024 170.44C209.137 170.885 208.93 171.418 209.15 171.81C209.275 171.991 209.44 172.131 209.629 172.216L212.438 173.806C215.58 175.587 217.186 179.677 219.504 182.657C220.304 183.627 221.013 184.69 221.619 185.827C222.62 187.857 223.082 190.406 224.774 191.698C225.228 191.965 225.642 192.314 225.999 192.73C226.53 193.523 226.336 194.633 226.383 195.631C226.431 196.63 227.104 197.818 227.942 197.515C227.648 198.724 227.648 200 227.942 201.209C231.618 200.995 235.123 199.385 237.894 196.639C238.714 195.827 239.504 194.79 239.513 193.557C239.525 193.344 239.483 193.132 239.392 192.945C239.226 192.705 239.007 192.517 238.757 192.402C236.129 190.788 235.339 187.045 234.01 184.007C232.849 181.326 231.131 179.017 229.694 176.526C226.569 171.169 224.437 164.686 219.711 161.149C218.671 160.371 217.462 159.681 216.94 158.395C216.651 157.675 216.616 156.854 216.388 156.11C216.159 155.366 215.611 154.642 214.912 154.642C215.3 153.566 215.222 152.255 215.248 151.09C215.275 150.573 215.222 150.055 215.093 149.559C214.913 149.025 214.68 148.516 214.398 148.042C213.165 145.676 212.548 142.961 212.62 140.214C212.654 138.8 212.874 137.342 212.499 135.992C212.309 135.312 211.977 134.691 211.748 134.035C211.403 132.847 211.221 131.606 211.208 130.356L210.949 125.654C210.91 124.088 210.731 122.531 210.414 121.006C209.551 117.356 208.688 102.067 205.731 100.345C202.775 98.623 197.695 110.389 194.367 110.619C192.895 110.689 191.44 111.007 190.051 111.564C187.837 112.503 185.981 114.255 184.173 115.967L178.053 121.794C176.758 123.002 175.688 124.157 174.259 125.008Z" fill="#464353"/>
<path id="Vector_16" d="M144.884 25.1914C146.231 23.1072 148.544 22.0015 150.823 21.9085C153.102 21.8156 155.346 22.6277 157.388 23.7775C157.99 24.1659 158.634 24.4652 159.304 24.6679C160.383 24.9174 161.583 24.5847 162.558 25.1572C163.853 25.9351 164.103 27.9165 163.991 29.5604C163.879 31.2043 163.607 33.0292 164.38 34.4529C164.654 34.8589 164.903 35.2856 165.126 35.7299C165.459 36.5763 165.264 37.5548 165.066 38.4501C164.561 37.9608 164.276 37.2221 163.827 36.6545C163.378 36.087 162.597 35.7054 162.04 36.131C161.484 36.5567 161.492 37.3297 161.462 38.0244C161.432 38.7192 161.276 39.5509 160.698 39.7759C160.457 39.8383 160.204 39.817 159.973 39.715C159.742 39.6129 159.544 39.4348 159.403 39.2035C158.415 37.8336 158.812 35.6467 157.832 34.267C157.275 33.4842 156.348 33.1026 155.834 32.2806C155.428 31.6348 155.325 30.8129 154.971 30.1182C154.617 29.4234 153.792 28.9146 153.244 29.3941C153.057 29.5967 152.901 29.8331 152.783 30.0937C152.441 30.6487 151.944 31.0568 151.372 31.2521C150.8 31.4474 150.187 31.4185 149.632 31.17C149.207 30.8747 148.748 30.649 148.268 30.4998C147.954 30.4819 147.641 30.5641 147.366 30.737C147.09 30.9099 146.863 31.1667 146.71 31.4783C146.4 32.1008 146.251 32.8093 146.278 33.5233C146.278 34.5018 146.434 35.5439 145.942 36.3267C145.755 36.6214 145.52 36.8737 145.251 37.0704C144.53 37.5939 143.525 37.9462 142.86 37.3493C142.635 37.1114 142.467 36.8119 142.373 36.4795C142.28 36.147 142.263 35.7929 142.325 35.451C142.454 34.77 142.624 34.0998 142.834 33.4451C143.214 31.9284 142.718 30.2209 143.132 28.7923C143.566 27.5057 144.156 26.2938 144.884 25.1914Z" fill="#464353"/>
<path id="Vector_17" d="M150.353 59.7081C150.288 60.0647 150.321 60.4352 150.448 60.7698C150.576 60.9976 150.75 61.1872 150.957 61.3226C152.408 62.3476 154.059 62.954 155.765 63.0888C155.997 63.0933 156.225 63.1604 156.43 63.2845C156.835 63.5879 156.861 64.263 156.71 64.8012C156.509 65.3089 156.404 65.8591 156.404 66.4157C156.529 67.4382 157.599 67.8835 158.501 68.0351C159.766 68.2162 161.151 68.1232 162.153 67.2279C162.831 66.5266 163.348 65.6483 163.659 64.6691C166.136 58.2159 167.004 51.0826 169.511 44.649C169.701 44.2289 169.828 43.7758 169.887 43.3084C169.913 43.0745 169.884 42.8367 169.802 42.6199C169.72 42.4031 169.588 42.2151 169.421 42.0755C168.955 41.7477 168.23 41.9337 167.914 41.4199C167.759 41.1606 167.776 40.8084 167.638 40.5344C167.349 39.9522 166.589 40.0452 166.072 39.7076C165.666 39.4629 165.385 38.959 164.932 38.8612C164.71 38.8469 164.487 38.8917 164.283 38.9919C164.078 39.0921 163.897 39.245 163.754 39.4385C162.282 40.9943 161.51 43.2008 160.689 45.285C159.437 48.4798 157.971 51.5613 156.304 54.5025C156.499 54.16 155.372 51.567 154.932 51.4545C154.159 51.2783 153.171 52.8146 152.752 53.387C151.439 55.1926 150.606 57.3853 150.353 59.7081Z" fill="#8CFF79"/>
<path id="Vector_18" opacity="0.1" d="M166.033 40.1625C165.723 40.1683 165.418 40.2532 165.141 40.4107C164.863 40.5682 164.621 40.7944 164.431 41.0725C163.97 41.7525 163.879 42.6527 163.762 43.5187C163.37 46.2623 162.506 48.8919 161.22 51.2587" fill="black"/>
<path id="Vector_19" opacity="0.1" d="M168.234 42.1146C167.806 42.1254 167.388 42.2624 167.021 42.512C166.654 42.7617 166.35 43.1154 166.141 43.5383C165.855 44.3079 165.677 45.1234 165.614 45.9552C165.244 47.7995 164.53 49.5327 163.521 51.0385" fill="black"/>
<path id="Vector_20" d="M270.808 137.763V131.687C270.807 127.213 269.239 122.924 266.448 119.761C263.657 116.599 259.873 114.822 255.927 114.822H44.2305C40.2844 114.822 36.4998 116.599 33.7091 119.761C30.9184 122.924 29.35 127.213 29.3489 131.687V142.89L270.808 137.763Z" fill="#33323D"/>
<path id="Vector_21" d="M103.122 107.699C103.122 107.699 102.518 150.195 109.165 164.178C115.812 178.16 118.66 238.989 118.66 238.989C118.66 238.989 188.338 247.159 236.893 229.204C285.448 211.248 388.765 203.905 388.765 203.905L371.354 70.8825C371.354 70.8825 285.34 64.6299 236.41 91.0836C187.479 117.537 103.122 107.699 103.122 107.699Z" fill="#8DD070"/>
<path id="Vector_22" opacity="0.1" d="M103.122 107.699C103.122 107.699 102.518 150.195 109.165 164.178C115.812 178.16 118.66 238.989 118.66 238.989C118.66 238.989 188.338 247.159 236.893 229.204C285.448 211.248 388.765 203.905 388.765 203.905L371.354 70.8825C371.354 70.8825 285.34 64.6299 236.41 91.0836C187.479 117.537 103.122 107.699 103.122 107.699Z" fill="black"/>
<path id="Vector_23" d="M118.544 123.222C118.544 123.222 116.364 158.287 121.832 169.491C127.301 180.695 127.555 230.711 127.555 230.711C127.555 230.711 190.263 234.008 234.869 216.796C279.475 199.585 373.21 188.42 373.21 188.42L362.558 79.6352C362.558 79.6352 284.999 78.7301 239.733 102.958C194.467 127.185 118.544 123.222 118.544 123.222Z" fill="#8DD070"/>
<path id="Vector_24" opacity="0.1" d="M239.044 196.879C247.966 195.619 253.267 177.013 250.884 155.321C248.5 133.629 239.335 117.065 230.413 118.325C221.49 119.585 216.19 138.191 218.573 159.883C220.957 181.575 230.122 198.139 239.044 196.879Z" fill="black"/>
<path id="Vector_25" opacity="0.2" d="M324.197 6.08136C324.197 6.08136 240.635 30.0546 201.23 72.2524C161.825 114.45 78.8708 134.431 78.8708 134.431C78.8708 134.431 89.799 175.083 99.9071 186.081C110.015 197.08 129.187 253.989 129.187 253.989C129.187 253.989 197.712 237.521 239.06 203.528C280.407 169.535 376.771 126.603 376.771 126.603L324.197 6.08136Z" fill="black"/>
<path id="Vector_26" d="M77.6148 128.345C77.6148 128.345 88.5387 169.002 98.6381 180C108.738 190.998 127.918 247.903 127.918 247.903C127.918 247.903 196.452 231.44 237.804 197.447C279.155 163.453 375.51 120.536 375.51 120.536L322.937 0C322.937 0 239.379 23.9732 199.974 66.171C160.569 108.369 77.6148 128.345 77.6148 128.345Z" fill="#8DD070"/>
<path id="Vector_27" opacity="0.1" d="M77.6148 128.345C77.6148 128.345 88.5387 169.002 98.6381 180C108.738 190.998 127.918 247.903 127.918 247.903C127.918 247.903 196.452 231.44 237.804 197.447C279.155 163.453 375.51 120.536 375.51 120.536L322.937 0C322.937 0 239.379 23.9732 199.974 66.171C160.569 108.369 77.6148 128.345 77.6148 128.345Z" fill="black"/>
<path id="Vector_28" d="M96.4802 137.758C96.4802 137.758 103.899 171.893 112.139 180.651C120.378 189.408 134.15 236.914 134.15 236.914C134.15 236.914 194.721 218.235 232.517 186.336C270.312 154.437 356.511 111.251 356.511 111.251L316.929 11.3849C316.929 11.3849 242.871 37.4961 206.344 76.3034C169.818 115.111 96.4802 137.758 96.4802 137.758Z" fill="#8DD070"/>
<path id="Vector_29" opacity="0.1" d="M231.119 165.943C239.27 161.64 239.278 142.088 231.138 122.272C222.997 102.455 209.79 89.8791 201.64 94.1816C193.489 98.4841 193.481 118.036 201.621 137.853C209.762 157.669 222.968 170.246 231.119 165.943Z" fill="black"/>
<path id="Vector_30" opacity="0.1" d="M276.523 143.727V312.518C276.523 314.435 276.189 316.333 275.542 318.104C274.895 319.875 273.946 321.484 272.75 322.84C271.554 324.195 270.134 325.27 268.572 326.003C267.009 326.736 265.335 327.113 263.644 327.112H42.2322C38.8184 327.111 35.5448 325.573 33.1312 322.836C30.7177 320.099 29.3618 316.388 29.3618 312.518V126.711C35.7064 129.382 35.7064 129.382 42.2322 129.157H263.644C267.055 129.157 270.327 130.691 272.741 133.423C275.156 136.154 276.516 139.86 276.523 143.727Z" fill="black"/>
<path id="Vector_31" d="M276.523 145.875V314.666C276.521 318.537 275.164 322.249 272.749 324.986C270.334 327.723 267.059 329.26 263.644 329.26H42.2322C38.8184 329.259 35.5448 327.721 33.1312 324.984C30.7177 322.247 29.3618 318.536 29.3618 314.666V128.854C35.7064 131.52 35.7064 131.52 42.2322 131.3H263.644C267.056 131.3 270.328 132.835 272.743 135.567C275.157 138.3 276.517 142.007 276.523 145.875Z" fill="#504F60"/>
<path id="Vector_32" opacity="0.1" d="M275.892 208.279V262.257H229.711C223.452 262.162 217.478 259.276 213.081 254.225C208.685 249.174 206.22 242.364 206.22 235.268C206.22 228.172 208.685 221.362 213.081 216.311C217.478 211.26 223.452 208.374 229.711 208.279H275.892Z" fill="black"/>
<path id="Vector_33" d="M276.523 206.84V260.829H230.341C224.082 260.733 218.108 257.848 213.712 252.797C209.315 247.746 206.85 240.935 206.85 233.839C206.85 226.744 209.315 219.933 213.712 214.882C218.108 209.831 224.082 206.945 230.341 206.85L276.523 206.84Z" fill="#33323D"/>
<path id="Vector_34" opacity="0.1" d="M232.555 245.794C237.683 245.794 241.839 241.083 241.839 235.27C241.839 229.458 237.683 224.747 232.555 224.747C227.428 224.747 223.272 229.458 223.272 235.27C223.272 241.083 227.428 245.794 232.555 245.794Z" fill="black"/>
<path id="Vector_35" d="M233.186 244.366C238.313 244.366 242.469 239.654 242.469 233.842C242.469 228.03 238.313 223.318 233.186 223.318C228.058 223.318 223.902 228.03 223.902 233.842C223.902 239.654 228.058 244.366 233.186 244.366Z" fill="#8CFF79"/>
<path id="Vector_36" d="M356.684 206.375C357.051 210.881 354.042 215.255 354.919 219.668C355.108 220.612 355.467 221.503 355.596 222.457C355.959 225.079 354.582 227.56 353.266 229.752L341.958 248.558C341.505 249.385 340.962 250.145 340.343 250.819C338.185 253.001 334.94 252.776 332.1 253.426C330.103 253.886 328.219 254.831 326.575 256.196C326.507 256.262 326.463 256.356 326.453 256.458C326.444 256.56 326.469 256.662 326.524 256.744C326.993 257.468 327.615 258.048 328.332 258.43C329.05 258.812 329.841 258.984 330.632 258.931C330.93 259.376 330.632 260.026 330.201 260.344C329.592 260.834 328.759 260.951 328.638 262.116C328.595 262.522 328.668 262.933 328.846 263.29C329.301 264.081 330.01 264.64 330.822 264.85C334.737 266.206 338.967 263.823 341.897 260.579C344.828 257.336 346.93 253.241 349.804 249.938C351.397 248.113 353.205 246.548 354.845 244.777C358.117 241.244 360.659 236.949 363.115 232.648C363.853 231.352 364.595 230.021 364.906 228.519C365.217 227.017 365.07 225.5 365.419 224.047C365.877 222.139 367.107 220.622 368.13 219.022C370.137 215.891 371.475 212.06 371.212 208.205C370.948 204.35 368.838 200.539 365.627 199.227C364.631 198.774 363.534 198.699 362.497 199.012C361.181 199.472 360.21 200.705 359.312 201.884L357.154 204.697C356.616 205.314 356.191 206.046 355.903 206.85C355.764 207.254 355.732 207.694 355.808 208.118C355.885 208.542 356.067 208.933 356.334 209.242" fill="#FBBEBE"/>
<path id="Vector_37" opacity="0.05" d="M356.684 206.375C357.051 210.881 354.042 215.255 354.919 219.668C355.108 220.612 355.467 221.503 355.596 222.457C355.959 225.079 354.582 227.56 353.266 229.752L341.958 248.558C341.505 249.385 340.962 250.145 340.343 250.819C338.185 253.001 334.94 252.776 332.1 253.426C330.103 253.886 328.219 254.831 326.575 256.196C326.507 256.262 326.463 256.356 326.453 256.458C326.444 256.56 326.469 256.662 326.524 256.744C326.993 257.468 327.615 258.048 328.332 258.43C329.05 258.812 329.841 258.984 330.632 258.931C330.93 259.376 330.632 260.026 330.201 260.344C329.592 260.834 328.759 260.951 328.638 262.116C328.595 262.522 328.668 262.933 328.846 263.29C329.301 264.081 330.01 264.64 330.822 264.85C334.737 266.206 338.967 263.823 341.897 260.579C344.828 257.336 346.93 253.241 349.804 249.938C351.397 248.113 353.205 246.548 354.845 244.777C358.117 241.244 360.659 236.949 363.115 232.648C363.853 231.352 364.595 230.021 364.906 228.519C365.217 227.017 365.07 225.5 365.419 224.047C365.877 222.139 367.107 220.622 368.13 219.022C370.137 215.891 371.475 212.06 371.212 208.205C370.948 204.35 368.838 200.539 365.627 199.227C364.631 198.774 363.534 198.699 362.497 199.012C361.181 199.472 360.21 200.705 359.312 201.884L357.154 204.697C356.616 205.314 356.191 206.046 355.903 206.85C355.764 207.254 355.732 207.694 355.808 208.118C355.885 208.542 356.067 208.933 356.334 209.242" fill="black"/>
<path id="Vector_38" d="M365.243 322.377C362.774 324.084 359.696 324.187 356.826 323.79C356.365 323.727 355.816 323.688 355.532 324.094C355.1 324.681 355.609 325.562 356.136 326.017C357.829 327.457 359.818 328.385 361.915 328.712C363.788 329.013 365.678 329.156 367.569 329.138C372.748 329.241 377.927 329.339 383.025 328.497C383.326 328.471 383.62 328.375 383.888 328.213C384.216 327.952 384.445 327.558 384.527 327.112C384.876 325.606 384.203 323.991 383.184 322.944C382.166 321.897 380.858 321.315 379.58 320.752L375.092 318.771C374.039 318.306 372.351 317.073 371.207 317.171C369.058 317.347 367.025 321.193 365.243 322.377Z" fill="#3F3D56"/>
<path id="Vector_39" opacity="0.05" d="M365.243 322.377C362.774 324.084 359.696 324.187 356.826 323.79C356.365 323.727 355.816 323.688 355.532 324.094C355.1 324.681 355.609 325.562 356.136 326.017C357.829 327.457 359.818 328.385 361.915 328.712C363.788 329.013 365.678 329.156 367.569 329.138C372.748 329.241 377.927 329.339 383.025 328.497C383.326 328.471 383.62 328.375 383.888 328.213C384.216 327.952 384.445 327.558 384.527 327.112C384.876 325.606 384.203 323.991 383.184 322.944C382.166 321.897 380.858 321.315 379.58 320.752L375.092 318.771C374.039 318.306 372.351 317.073 371.207 317.171C369.058 317.347 367.025 321.193 365.243 322.377Z" fill="black"/>
<path id="Vector_40" d="M368.389 254.831C366.52 257.649 364.587 260.902 365.048 264.391C365.299 266.269 366.227 267.928 366.909 269.665C367.832 272.023 368.316 274.557 368.79 277.082C369.49 280.771 370.193 284.469 370.62 288.217C371.108 292.449 368.816 304.695 368.605 308.956C368.553 309.984 368.445 311.094 367.815 311.833C367.569 312.127 367.241 312.362 367.129 312.743C367.063 313.111 367.117 313.493 367.28 313.82C368.333 316.51 370.487 318.516 372.891 319.661C375.295 320.806 381.091 322.783 383.711 322.885C384.056 322.928 384.406 322.876 384.729 322.734C385.078 322.493 385.352 322.136 385.515 321.711C387.392 317.641 385.588 303.169 385.614 298.575C385.64 294.744 386.438 290.937 386.292 287.111C386.171 284.039 385.429 281.035 385.183 277.972C384.751 272.953 385.562 267.908 386.378 262.947C387 259.141 387.625 255.335 388.424 251.577C388.912 249.283 389.477 246.968 390.582 244.977C391.445 243.397 392.658 242.076 393.664 240.574C396.455 236.426 397.695 231.2 397.116 226.024C397.056 225.534 390.642 227.868 390.077 228.147C387.77 229.254 385.647 230.802 383.801 232.722C382.317 234.326 381.147 236.469 379.848 238.265C378.009 240.806 376.194 243.364 374.401 245.941C372.355 248.886 370.351 251.85 368.389 254.831Z" fill="#464353"/>
<path id="Vector_41" opacity="0.05" d="M368.389 254.659C366.52 257.478 364.587 260.736 365.048 264.219C365.299 266.103 366.227 267.762 366.909 269.498C367.832 271.852 368.316 274.391 368.79 276.911C369.49 280.604 370.193 284.303 370.62 288.046C371.108 292.283 368.816 304.524 368.605 308.785C368.553 309.813 368.445 310.928 367.815 311.667C367.569 311.956 367.241 312.19 367.129 312.572C367.062 312.94 367.116 313.322 367.28 313.648C368.333 316.344 370.487 318.345 372.891 319.519C375.295 320.694 381.091 321.716 383.711 321.814C384.056 321.857 384.406 321.805 384.729 321.662C385.079 321.424 385.353 321.068 385.515 320.645C387.392 316.574 385.588 303.032 385.614 298.433C385.64 294.597 386.438 290.795 386.292 286.965C386.171 283.892 385.429 280.888 385.183 277.83C384.751 272.806 385.562 267.762 386.378 262.801C387 258.999 387.625 255.193 388.424 251.43C388.912 249.136 389.477 246.822 390.582 244.83C391.445 243.25 392.658 241.929 393.664 240.427C396.456 236.279 397.696 231.053 397.116 225.877C397.056 225.388 390.642 227.721 390.077 228C387.771 229.111 385.648 230.66 383.801 232.58C382.317 234.179 381.147 236.322 379.848 238.118C378.009 240.659 376.194 243.219 374.401 245.799C372.355 248.722 370.351 251.675 368.389 254.659Z" fill="black"/>
<path id="Vector_42" d="M347.594 192.764C353.379 192.764 358.069 187.448 358.069 180.89C358.069 174.332 353.379 169.016 347.594 169.016C341.809 169.016 337.119 174.332 337.119 180.89C337.119 187.448 341.809 192.764 347.594 192.764Z" fill="#FBBEBE"/>
<path id="Vector_43" d="M357.029 180.391C357.997 182.141 359.266 183.652 360.76 184.834C362.254 186.016 363.943 186.844 365.726 187.27L364.936 190.524C363.572 196.111 362.04 202.021 358.233 205.896C358.665 204.003 358.113 201.982 357.172 200.338C356.231 198.694 354.91 197.403 353.615 196.126L347.586 190.206C347.412 190.045 347.265 189.849 347.154 189.628C347.005 189.211 347.005 188.744 347.154 188.327C347.922 185.617 350.115 183.924 351.902 182.094C352.798 181.148 353.599 180.091 354.289 178.943C355.493 176.996 356.239 178.953 357.029 180.391Z" fill="#FBBEBE"/>
<path id="Vector_44" d="M333.796 168.953L333.559 166.722C335.212 167.211 336.783 165.616 337.84 163.967C338.898 162.318 339.877 160.376 341.487 159.686C343.442 158.854 345.514 160.175 347.383 161.291C349.475 162.607 351.771 163.454 354.146 163.786C354.525 163.8 354.901 163.869 355.264 163.992C356.481 164.481 357.059 166.213 357.236 167.783C357.413 169.354 357.366 171.022 357.966 172.421C358.397 173.483 359.2 174.271 359.692 175.318C360.987 178.126 359.735 181.967 361.086 184.721L357.728 181.233C357.422 180.915 356.99 180.582 356.649 180.851C356.382 181.066 356.36 181.531 356.252 181.903C355.929 182.989 354.729 183.312 353.861 182.882C352.994 182.451 352.359 181.517 351.703 180.665C350.219 178.679 348.449 176.932 346.377 176.086C345.469 175.701 344.499 175.54 343.532 175.612C342.565 175.685 341.622 175.99 340.766 176.507C339.2 177.51 338.052 179.848 336.131 179.931C333.498 180.044 332.402 174.486 331.185 172.289C331.63 171.909 331.944 171.364 332.07 170.749C332.196 170.133 332.127 169.487 331.875 168.923C332.052 168.84 333.757 168.61 333.796 168.953Z" fill="#464353"/>
<path id="Vector_45" d="M204.234 99.533C203.392 100.382 202.614 101.308 201.907 102.302C201.196 103.31 200.818 104.568 200.837 105.859C200.841 106.233 200.946 106.597 201.139 106.901C201.238 107.047 201.374 107.153 201.529 107.207C201.683 107.26 201.849 107.258 202.002 107.2C202.176 107.099 202.324 106.951 202.434 106.769C202.89 106.148 203.374 105.553 203.884 104.988C204.07 104.778 204.316 104.558 204.566 104.636C204.678 104.681 204.779 104.757 204.86 104.856C205.15 105.141 205.361 105.514 205.468 105.932C205.619 106.681 205.235 107.429 204.799 108.017C204.363 108.604 203.85 109.166 203.673 109.905C203.606 110.1 203.606 110.317 203.673 110.512C203.756 110.653 203.873 110.765 204.009 110.835C204.627 111.22 205.313 111.448 206.017 111.5C206.721 111.552 207.426 111.429 208.084 111.138C208.947 110.742 209.715 110.062 210.604 109.709C210.989 109.59 211.362 109.426 211.718 109.22C211.972 109.028 212.19 108.781 212.36 108.493C212.53 108.205 212.647 107.882 212.706 107.542C212.818 106.863 212.84 106.169 212.771 105.482C212.663 102.824 212.161 100.206 211.286 97.7374C211.235 97.5782 211.149 97.4366 211.036 97.3265C210.906 97.2368 210.756 97.1909 210.604 97.1944C209.499 97.0623 207.687 96.4214 206.62 96.8862C206.248 97.1179 205.926 97.4424 205.68 97.8353C205.481 98.0848 204.234 99.2052 204.234 99.533Z" fill="#A1616A"/>
<path id="Vector_46" d="M203.884 98.4272C203.884 97.2335 202.589 94.3518 204.648 94.161C204.648 92.884 203.055 92.0914 203.353 90.7362C203.448 90.2861 203.785 89.9192 203.824 89.4593C203.953 88.153 201.873 87.4436 202.218 86.1911C202.348 85.7018 202.805 85.4181 202.904 84.9337C203.137 83.8035 201.355 83.2996 201.32 82.1401C201.32 81.7487 201.515 81.3817 201.497 80.9903C201.497 80.5011 201.122 80.1293 200.915 79.7036C200.375 78.6126 200.638 76.9247 199.654 76.362C200.306 76.4257 200.518 75.3297 200.25 74.6595C199.982 73.9892 199.434 73.407 199.43 72.6633C199.462 72.3938 199.462 72.1206 199.43 71.8512C199.249 71.1369 198.217 71.0782 198.045 70.3834C198.022 70.1168 198.015 69.8488 198.023 69.5811C197.954 69.0282 197.453 68.6759 196.983 68.5194C196.494 68.4253 196.024 68.2349 195.593 67.9567C195.291 67.6974 194.941 67.2669 194.618 67.4675C194.497 67.5507 194.436 67.7072 194.346 67.8246C193.957 68.3383 193.215 68.1133 192.727 67.7366C191.286 66.626 190.569 64.6347 190.263 62.6924C189.956 60.7501 189.965 58.7442 189.581 56.8214C189.464 56.2222 189.308 55.6335 189.115 55.0601C188.951 54.5709 188.424 53.8027 188.39 53.3086C188.312 52.1833 190.366 52.9514 191.148 53.064C191.906 53.1479 192.656 53.3117 193.388 53.5532C194.169 53.8877 194.934 54.2682 195.679 54.6932C198.796 56.2539 202.559 56.4447 205.062 59.0671C205.887 59.9282 206.582 61.0583 207.652 61.4497C208.143 61.5564 208.627 61.6986 209.102 61.8754C210.289 62.5065 210.475 64.2923 211.122 65.5839C211.326 65.925 211.503 66.285 211.653 66.6602C211.778 67.1027 211.836 67.5658 211.826 68.0301L211.916 71.4206C212.063 77.1008 212.21 82.7957 211.675 88.4416C211.502 90.3057 211.243 92.2235 211.731 94.0142C211.86 94.5034 212.041 94.9633 212.162 95.4575C212.269 96.0368 212.324 96.6269 212.326 97.2188L212.395 99.4155C212.419 99.5863 212.385 99.7611 212.3 99.9048C212.228 99.9712 212.144 100.018 212.053 100.043C211.963 100.067 211.869 100.069 211.778 100.047C209.081 99.7727 206.353 98.0505 203.806 99.0926" fill="#464353"/>
<path id="Vector_47" d="M326.985 267.218C344.615 267.218 358.907 264.877 358.907 261.988C358.907 259.1 344.615 256.758 326.985 256.758C309.356 256.758 295.064 259.1 295.064 261.988C295.064 264.877 309.356 267.218 326.985 267.218Z" fill="#504F60"/>
<path id="Vector_48" d="M354.448 262.243C353.887 259.518 353.538 257.125 353.538 257.125C353.538 257.125 353.667 254.16 352.493 251.934V251.191V245.711C352.827 244.716 353.236 243.755 353.714 242.839C354.578 241.117 353.714 234.806 353.714 234.806C353.714 234.806 350.49 225.906 351.272 220.26C352.053 214.614 344.651 195.191 344.651 195.191C344.696 193.318 344.93 191.457 345.346 189.643C345.425 189.262 345.457 188.87 345.441 188.479C345.441 188.43 345.441 188.386 345.441 188.337C345.441 188.288 345.441 188.366 345.441 188.381C345.328 184.658 342.73 177.681 342.73 177.681L343.08 164.383C343.08 164.383 344.737 156.555 342.035 146.012C341.09 142.337 340.486 139.397 340.102 137.127C340.059 136.873 340.015 136.638 339.981 136.388C345.544 135.41 349.796 134.627 349.796 134.627C349.796 134.627 346.567 119.318 344.388 116.637C342.208 113.956 340.464 105.536 340.464 105.536C340.464 105.536 339.329 94.7286 341.163 91.568C342.998 88.4075 343.257 82.9572 343.257 82.9572C343.257 82.9572 347.439 79.5325 347.966 77.9816C348.492 76.4306 349.36 73.0059 349.36 71.1908C349.36 69.3757 348.837 67.766 349.01 66.7875C349.183 65.809 347.789 62.1935 348.488 60.4713C348.669 59.9423 348.762 59.3801 348.764 58.8128C348.766 58.7965 348.766 58.7801 348.764 58.7638C348.77 57.2568 348.648 55.7526 348.397 54.2725C347.187 53.1145 345.775 52.2592 344.254 51.7627L344.163 51.3517L343.926 50.2754C343.793 50.1761 343.656 50.0846 343.516 50.0014V49.61L343.477 48.0542L344.133 44.5609C345.428 38.4844 338.267 37.5793 338.267 37.5793C337.833 36.6472 337.111 35.9295 336.239 35.5636C334.802 34.9912 336.002 44.7028 336.671 45.3486C337.175 45.8379 338.738 48.8614 339.493 50.3585L339.614 50.6032C339.496 50.7236 339.386 50.8545 339.286 50.9946L339.558 53.1032L339.601 53.4261C339.127 54.0941 338.741 54.8376 338.457 55.6326C338.457 55.6326 339.752 57.257 339.506 59.0574C339.26 60.8578 339.908 63.1426 339.938 63.2649C339.86 63.1622 338.941 62.0369 338.021 62.3109C337.102 62.5849 334.534 63.4606 334.534 63.4606C334.534 63.4606 332.618 63.8423 332.808 64.3217C332.998 64.8012 331.513 66.905 331.513 66.905L326.36 61.3666C326.308 61.2003 326.252 61.034 326.209 60.8774C325.998 60.0789 325.854 59.2599 325.777 58.4312C326.339 58.2799 326.89 58.082 327.426 57.8392C327.967 57.6284 328.456 57.2726 328.85 56.802C329.372 56.1023 329.471 55.1532 329.683 54.2823C330.089 52.5797 330.978 51.0679 331.595 49.4485C332.64 46.7121 332.977 43.695 332.566 40.7497C332.487 39.842 332.216 38.9693 331.776 38.2056C330.935 36.8944 329.407 36.3611 328.297 35.3141C327.188 34.2671 326.472 32.6673 325.177 31.8894C324.007 31.1799 322.587 31.2631 321.267 31.5077C318.687 31.9899 316.209 33.0119 313.96 34.5215C313.209 35.0108 312.38 35.6125 311.517 35.4315C310.774 35.2798 310.222 34.6096 309.756 33.9638C309.761 33.937 309.768 33.9109 309.777 33.8855C309.756 33.8617 309.738 33.8354 309.721 33.8072C309.175 35.1812 308.901 36.6742 308.919 38.1811C308.919 38.4159 308.919 38.6704 308.944 38.8807V39.1254C308.944 39.1938 308.944 39.2623 308.944 39.3259C308.944 39.4302 308.931 39.534 308.906 39.6342C308.797 39.9335 308.632 40.2023 308.422 40.4219C308.264 40.6259 308.119 40.8434 307.991 41.0726C307.991 40.9943 308.034 40.916 308.06 40.8328C307.73 41.3776 307.545 42.0174 307.524 42.6773C307.5 43.1577 307.639 43.6304 307.913 43.9983C308.171 44.2827 308.453 44.5383 308.755 44.7615C308.652 45.4074 308.6 46.0623 308.599 46.7185C308.609 48.664 309.061 50.5738 309.913 52.2631C310.764 53.9524 311.986 55.3641 313.459 56.3616C313.519 56.5231 313.576 56.6894 313.632 56.8509C314.292 58.8079 314.788 61.1073 314.568 63.2111C314.568 63.3628 314.529 63.5193 314.508 63.671C314.486 63.8227 314.378 63.8325 314.322 63.9156C314.322 63.9156 305.807 64.0135 303.804 61.9586C301.801 59.9038 298.746 66.9832 298.746 66.9832C298.746 66.9832 295.694 67.6535 295.081 66.9832C294.469 66.313 290.899 66.8903 290.899 66.8903C289.437 65.416 287.534 64.6288 285.578 64.6887C284.392 63.6676 283.084 62.8438 281.693 62.2424L281.598 62.2033C280.984 61.9496 280.328 61.8559 279.678 61.9293C279.678 61.9293 275.491 58.0153 274.27 55.9017C273.048 53.7882 267.235 45.9846 267.209 45.9504V45.5737L267.144 44.4386C266.971 44.4693 266.797 44.4857 266.622 44.4875C266.591 44.375 266.548 44.2429 266.505 44.0912C266.17 42.9841 265.757 41.9092 265.271 40.8769C265.271 40.8769 265.271 39.4434 265.638 39.0813C266.004 38.7193 265.487 33.4598 265.487 33.4598C265.487 33.4598 261.714 23.4645 258.335 30.9255C258.335 30.9255 251.947 35.7544 257.308 41.3808C257.308 41.3808 259.466 42.555 259.751 43.4846C259.949 44.0863 260.674 45.7743 261.162 46.9093L261.382 47.3986L261.322 47.4573L261.399 48.3966L261.434 48.7587C260.424 49.4094 259.738 50.0552 259.906 50.5396C260.203 51.3684 260.408 52.2363 260.514 53.1228C260.514 53.1228 267.929 63.6514 268.888 68.1476C268.888 68.1476 288.771 81.5433 295.31 82.4973L294.153 89.1756C293.985 90.9878 293.899 92.8085 293.895 94.6307C293.981 96.0642 293.109 102.571 293.109 102.571C293.109 102.571 291.974 112.141 291.016 113.482C290.058 114.822 290.23 120.561 290.23 120.561C290.004 123.308 289.571 126.029 288.935 128.692C287.977 132.327 288.672 136.829 288.672 136.829C288.672 136.829 285.362 145.439 293.295 139.603C293.295 139.603 297.179 139.329 301.676 139.152C301.676 139.319 301.676 139.49 301.676 139.642C301.676 140.297 301.676 141.007 301.646 141.75C301.586 146.682 301.56 153.492 301.758 158.62C302.108 167.71 304.551 185.7 304.551 185.7V194.756C304.393 195.605 304.315 196.471 304.318 197.339C304.266 200.525 305.014 203.663 306.476 206.385L307.089 212.413C307.089 212.413 308.521 216.385 308.547 218.773C308.542 218.965 308.522 219.157 308.487 219.345C308.431 219.649 308.408 219.96 308.418 220.27C308.336 223.01 309.79 229.566 309.79 229.566C309.79 229.566 309.877 236.166 310.749 236.552C311.495 236.88 309.752 240.354 309.234 241.352C309.22 241.291 309.21 241.229 309.203 241.166L309.096 241.362C308.916 241.896 308.823 242.463 308.824 243.035C308.774 243.486 308.839 243.943 309.01 244.353C309.182 244.764 309.452 245.111 309.79 245.354C311.448 246.504 312.337 247.458 310.93 247.839C310.412 247.93 309.899 248.053 309.393 248.206C309.393 248.133 309.342 248.055 309.32 247.986C309.121 248.074 308.956 248.237 308.851 248.447C308.747 248.658 308.709 248.903 308.746 249.141C308.759 249.917 308.935 250.678 309.26 251.362C310.654 254.904 311.62 256.254 311.62 256.254L312.289 256.171C312.191 256.461 312.06 256.736 311.901 256.988C311.646 257.399 311.309 257.734 310.917 257.967C310.551 258.215 310.144 258.373 309.721 258.432C309.249 258.449 308.785 258.579 308.359 258.813C307.934 259.048 307.557 259.381 307.253 259.792C306.389 261.069 305.837 262.805 307.555 264.332L313.791 266.778C313.791 266.778 324.521 268.358 323.951 265.628C323.382 262.898 323.036 260.511 323.036 260.511C323.082 258.844 322.787 257.188 322.173 255.672C322.061 255.425 321.934 255.186 321.793 254.958L322.173 254.914C322.173 254.914 322.959 248.881 324.003 247.737C324.245 247.472 324.301 247.247 324.245 247.11C324.353 246.783 324.076 246.592 323.727 246.479L323.649 246.719C323.307 246.634 322.959 246.59 322.609 246.587C322.609 246.587 322.259 243.431 323.394 242.281C323.486 242.15 323.553 241.999 323.591 241.838C323.629 241.676 323.637 241.507 323.615 241.342C323.623 240.909 323.583 240.477 323.494 240.055C323.482 240.082 323.469 240.109 323.455 240.134C322.885 237.267 320.952 232.712 320.952 232.712C320.952 232.712 320.865 229.845 321.564 228.695C322.264 227.545 321.474 213.098 321.474 213.098C321.474 213.098 321.737 206.116 320.952 202.863C320.166 199.609 321.91 195.778 321.91 195.778C321.91 195.778 321.91 195.705 321.91 195.573V195.524L321.811 194.423C321.808 194.446 321.808 194.469 321.811 194.492C321.634 192.642 321.301 189.291 321.055 187.745C320.706 185.543 321.146 175.024 321.146 175.024L322.713 170.523L325.505 178.278L328.47 188.611C328.47 188.611 329.938 190.793 329.972 193.014C329.972 193.122 329.972 193.229 329.972 193.337C329.948 193.566 329.937 193.796 329.938 194.027C329.885 195.332 330.201 196.623 330.84 197.711C330.84 197.711 331.625 202.603 332.847 203.831C334.068 205.059 334.068 207.466 334.068 207.466C334.068 207.466 335.548 214.551 336.226 215.784C336.813 216.831 336.843 219.698 336.839 220.593C336.839 220.754 336.839 220.847 336.839 220.847C336.839 220.847 337.046 223.382 337.037 225.505C337.037 225.769 337.037 226.024 337.037 226.263C337.039 226.246 337.039 226.227 337.037 226.21C337.037 226.79 336.976 227.368 336.856 227.932L336.83 228.03C336.83 227.907 336.83 227.79 336.86 227.672C336.557 229.114 336.412 230.593 336.429 232.076C336.39 234.62 336.731 237.634 338.09 239.414C340.447 242.477 341.927 242.096 341.927 242.096C341.927 242.096 340.797 245.921 339.398 246.69C339.345 246.718 339.296 246.754 339.251 246.797C339.251 246.719 339.226 246.646 339.217 246.572C339.061 246.763 338.942 246.989 338.868 247.235C338.794 247.481 338.765 247.742 338.785 248.001C338.686 249.684 339.623 252.404 340.512 253.671C340.842 254.038 341.247 254.306 341.69 254.454C341.62 254.51 341.546 254.561 341.47 254.606C341.315 254.702 341.155 254.789 340.991 254.865C340.764 254.974 340.524 255.045 340.279 255.075C339.805 255.09 339.34 255.218 338.915 255.453C338.489 255.688 338.112 256.022 337.81 256.435C336.947 257.707 336.394 259.444 338.112 260.971L344.349 263.417C344.349 263.417 355.009 264.968 354.448 262.243Z" fill="url(#paint0_linear)"/>
<path id="Vector_49" d="M313.485 266.763L307.443 264.317C305.777 262.791 306.307 261.054 307.149 259.777C307.439 259.37 307.802 259.038 308.214 258.803C308.627 258.568 309.079 258.437 309.54 258.417C309.949 258.358 310.342 258.199 310.692 257.952C311.075 257.716 311.404 257.381 311.651 256.974C312.091 256.181 312.329 255.264 312.337 254.327C312.337 254.327 318.966 252.125 320.779 254.327C321.103 254.725 321.373 255.175 321.582 255.662C322.184 257.182 322.479 258.835 322.445 260.501C322.445 260.501 322.782 262.889 323.33 265.619C323.878 268.349 313.485 266.763 313.485 266.763Z" fill="#2D293D"/>
<path id="Vector_50" d="M343.024 263.388L336.981 260.941C335.315 259.415 335.846 257.678 336.688 256.406C336.975 255.997 337.337 255.664 337.75 255.429C338.162 255.194 338.614 255.064 339.075 255.046C339.313 255.018 339.546 254.947 339.765 254.835C339.925 254.759 340.08 254.673 340.231 254.576C341.919 253.524 341.876 250.941 341.876 250.941C341.876 250.941 348.501 248.739 350.318 250.941C350.561 251.239 350.774 251.568 350.952 251.92C352.087 254.146 351.962 257.115 351.962 257.115C351.962 257.115 352.299 259.508 352.825 262.233C353.352 264.958 343.024 263.388 343.024 263.388Z" fill="#2D293D"/>
<path id="Vector_51" opacity="0.1" d="M320.783 254.322C321.107 254.72 321.377 255.17 321.586 255.657L311.659 256.964C312.1 256.171 312.338 255.254 312.345 254.317C312.345 254.317 318.971 252.12 320.783 254.322Z" fill="black"/>
<path id="Vector_52" opacity="0.1" d="M350.961 251.929V254.038C349.416 256.92 341.945 256.289 339.774 254.845C339.933 254.769 340.089 254.682 340.24 254.586C341.927 253.534 341.884 250.951 341.884 250.951C341.884 250.951 348.509 248.749 350.326 250.951C350.569 251.249 350.782 251.577 350.961 251.929Z" fill="black"/>
<path id="Vector_53" d="M352.139 242.839C351.677 243.758 351.283 244.719 350.961 245.711V253.27C349.269 256.426 340.495 255.374 339.308 253.652C338.121 251.929 336.882 247.448 338.216 246.67C339.549 245.892 340.663 242.076 340.663 242.076C340.663 242.076 339.226 242.457 336.947 239.395C334.668 236.332 335.346 229.541 335.768 227.917C336.191 226.293 335.768 220.838 335.768 220.838C335.768 220.838 335.855 217.007 335.182 215.764C334.508 214.521 333.071 207.447 333.071 207.447C333.071 207.447 333.071 205.054 331.888 203.812C330.706 202.569 329.946 197.686 329.946 197.686C329.255 196.466 328.957 195.012 329.105 193.572C329.355 191.179 327.667 188.596 327.667 188.596L324.797 178.258L322.095 170.508L320.576 175.005C320.576 175.005 320.145 185.528 320.494 187.725C320.844 189.922 321.357 195.763 321.357 195.763C321.357 195.763 319.67 199.589 320.429 202.843C321.189 206.096 320.913 213.088 320.913 213.088C320.913 213.088 321.672 227.53 320.995 228.68C320.317 229.83 320.403 232.702 320.403 232.702C320.403 232.702 323.856 241.117 322.769 242.267C321.681 243.416 322.009 246.572 322.009 246.572C322.009 246.572 324.37 246.572 323.36 247.722C322.35 248.872 321.586 254.899 321.586 254.899L311.379 256.254C311.379 256.254 310.446 254.919 309.096 251.362C307.745 247.805 309.346 248.206 310.705 247.82C312.065 247.433 311.206 246.484 309.601 245.334C307.995 244.185 308.927 241.601 308.927 241.601C308.927 241.601 311.374 236.914 310.528 236.533C309.683 236.151 309.601 229.546 309.601 229.546C309.601 229.546 307.913 221.718 308.336 219.595C308.759 217.472 306.985 212.422 306.985 212.422L306.394 206.395C304.588 202.975 303.929 198.931 304.538 195.005V185.709C304.538 185.709 302.173 167.725 301.836 158.634C301.62 152.812 301.681 144.867 301.75 139.911C301.793 137.132 301.836 135.287 301.836 135.287L338.298 130.982C338.298 130.982 338.263 132.89 338.958 137.122C339.334 139.392 339.916 142.333 340.831 146.007C343.447 156.531 341.845 164.373 341.845 164.373L341.504 177.676C341.504 177.676 344.711 186.57 344.038 189.633C343.631 191.452 343.402 193.316 343.356 195.191C343.356 195.191 350.529 214.614 349.77 220.26C349.01 225.906 352.131 234.806 352.131 234.806C352.131 234.806 352.985 241.117 352.139 242.839Z" fill="#464353"/>
<path id="Vector_54" opacity="0.05" d="M331.293 192.994L342.394 191.316C342.394 191.316 336.105 198.591 331.293 192.994Z" fill="black"/>
<path id="Vector_55" opacity="0.1" d="M340.788 179.021C340.788 179.021 341.168 183.474 338.764 185.147C338.764 185.147 343.067 184.384 340.788 179.021Z" fill="black"/>
<path id="Vector_56" opacity="0.1" d="M340.106 164.863C340.106 164.863 330.827 173.522 327.452 172.803C324.076 172.084 340.106 164.863 340.106 164.863Z" fill="black"/>
<path id="Vector_57" opacity="0.1" d="M317.533 197.055C317.533 197.055 310.485 198.87 310.274 202.08C310.062 205.289 317.533 197.055 317.533 197.055Z" fill="black"/>
<path id="Vector_58" opacity="0.05" d="M319.083 236.958C319.083 236.958 309.126 239.062 311.953 240.496C314.78 241.929 319.424 243.079 319.424 243.079C319.424 243.079 322.639 243.27 319.083 236.958Z" fill="black"/>
<path id="Vector_59" opacity="0.05" d="M309.941 242.775C309.691 242.598 309.479 242.359 309.321 242.076C309.164 241.793 309.064 241.474 309.031 241.141L308.927 241.342C308.927 241.342 307.999 243.925 309.605 245.07C309.786 245.202 309.963 245.334 310.123 245.461C310.421 245.398 310.74 245.349 311.046 245.261C312.406 244.879 311.547 243.925 309.941 242.775Z" fill="black"/>
<path id="Vector_60" opacity="0.05" d="M322.769 242.007C323.045 241.724 323.036 240.99 322.868 240.05C322.436 240.789 322.311 241.944 322.302 242.819C322.407 242.516 322.566 242.239 322.769 242.007Z" fill="black"/>
<path id="Vector_61" opacity="0.05" d="M321.236 194.408C320.87 195.54 320.643 196.724 320.563 197.926C320.756 197.096 321.014 196.287 321.336 195.509L321.236 194.408Z" fill="black"/>
<path id="Vector_62" opacity="0.05" d="M344.042 189.389C344.109 189.045 344.139 188.693 344.133 188.342C344.008 189.056 343.921 189.716 343.857 190.299C343.913 190 343.973 189.716 344.042 189.389Z" fill="black"/>
<path id="Vector_63" opacity="0.05" d="M320.999 228.426C321.137 228.191 321.215 227.398 321.249 226.298C320.937 227.149 320.772 228.061 320.762 228.984C320.821 228.787 320.9 228.6 320.999 228.426Z" fill="black"/>
<path id="Vector_64" opacity="0.05" d="M323.071 246.469C322.547 248.388 322.159 250.352 321.91 252.34L311.702 253.676C311.702 253.676 310.77 252.34 309.419 248.784C309.31 248.509 309.214 248.228 309.13 247.942C308.517 248.26 308.267 248.979 309.078 251.078C310.429 254.62 311.366 255.971 311.366 255.971L321.573 254.63C321.573 254.63 322.333 248.602 323.343 247.453C323.861 246.9 323.541 246.611 323.071 246.469Z" fill="black"/>
<path id="Vector_65" opacity="0.05" d="M309.605 229.287C309.605 229.287 309.687 235.887 310.533 236.269C310.964 235.178 311.245 234.14 310.865 233.969C310.002 233.587 309.937 226.983 309.937 226.983C309.937 226.983 308.25 219.155 308.673 217.031C309.096 214.908 307.322 209.859 307.322 209.859L306.73 203.831C304.924 200.411 304.266 196.368 304.874 192.442V183.146C304.874 183.146 302.509 165.161 302.173 156.071C301.957 150.249 302.017 142.303 302.086 137.347C302.086 136.452 302.112 135.659 302.125 134.989L301.836 135.023C301.836 135.023 301.788 136.863 301.75 139.647C301.681 144.603 301.616 152.548 301.836 158.365C302.173 167.456 304.533 185.445 304.533 185.445V194.741C303.928 198.666 304.588 202.707 306.394 206.126L306.981 212.153C306.981 212.153 308.755 217.222 308.332 219.331C307.909 221.439 309.605 229.287 309.605 229.287Z" fill="black"/>
<path id="Vector_66" opacity="0.05" d="M339.653 251.098C338.824 249.737 338.271 248.185 338.034 246.552C336.994 247.619 338.19 251.758 339.329 253.402C340.508 255.124 349.286 256.176 350.982 253.015V251.195C348.682 253.754 340.766 252.727 339.653 251.098Z" fill="black"/>
<path id="Vector_67" opacity="0.05" d="M352.48 240.285C352.017 241.204 351.622 242.165 351.297 243.157V244.512C351.492 244.023 351.764 243.368 352.161 242.595C352.428 241.841 352.554 241.033 352.532 240.222C352.532 240.222 352.493 240.266 352.48 240.285Z" fill="black"/>
<path id="Vector_68" opacity="0.05" d="M340.171 241.797C340.492 241.06 340.77 240.3 341.004 239.522C341.004 239.522 339.567 239.904 337.288 236.841C335.63 234.615 335.535 230.407 335.773 227.658C335.341 229.287 334.672 236.078 336.951 239.14C338.44 241.141 339.567 241.67 340.171 241.797Z" fill="black"/>
<path id="Vector_69" opacity="0.05" d="M335.768 220.578C335.917 222.463 335.974 224.356 335.937 226.249C335.979 225.95 336.037 225.654 336.109 225.363C336.541 223.734 336.109 218.284 336.109 218.284C336.109 218.284 336.196 214.453 335.518 213.21C334.841 211.967 333.429 204.883 333.429 204.883C333.429 204.883 333.429 202.491 332.247 201.248C331.064 200.005 330.304 195.123 330.304 195.123C329.607 193.905 329.302 192.451 329.441 191.008C329.696 188.616 328.008 186.032 328.008 186.032L325.138 175.699L322.436 167.95L320.913 172.451C320.913 172.451 320.913 173.018 320.861 173.918L322.095 170.264L324.797 177.999L327.667 188.332C327.667 188.332 329.355 190.915 329.1 193.307C328.961 194.751 329.266 196.204 329.963 197.422C329.963 197.422 330.723 202.315 331.906 203.547C333.088 204.78 333.084 207.183 333.084 207.183C333.084 207.183 334.521 214.262 335.194 215.5C335.868 216.738 335.768 220.578 335.768 220.578Z" fill="black"/>
<path id="Vector_70" d="M342.855 44.5462L342.221 48.0394L342.26 49.5952L342.286 50.7401L338.764 51.1511L338.371 50.3242C337.642 48.8271 336.127 45.784 335.639 45.3143C334.987 44.6979 333.826 34.9813 335.207 35.5587C336.058 35.9309 336.756 36.6474 337.167 37.5695C337.167 37.5695 344.103 38.4697 342.855 44.5462Z" fill="#FFCDD3"/>
<path id="Vector_71" opacity="0.1" d="M342.286 50.7401L338.764 51.1511L338.371 50.3242C338.845 49.7129 339.491 49.3066 340.199 49.1746C340.907 49.0426 341.634 49.193 342.256 49.6001L342.286 50.7401Z" fill="black"/>
<path id="Vector_72" d="M343.175 52.6335L338.531 53.8517L338.432 53.0689L338.168 50.9603C338.168 50.9603 340.007 48.1813 342.666 50.2655L342.899 51.337L343.175 52.6335Z" fill="#8CFF79"/>
<path id="Vector_73" d="M267.947 44.9278L262.988 47.9416L262.556 46.8848C262.086 45.7644 261.382 44.0765 261.188 43.46C260.894 42.5305 258.827 41.3563 258.827 41.3563C253.648 35.7348 259.82 30.901 259.82 30.901C263.091 23.4399 266.725 33.4353 266.725 33.4353C266.725 33.4353 267.235 38.7045 266.876 39.0568C266.518 39.409 266.518 40.8523 266.518 40.8523C266.991 41.8864 267.39 42.9612 267.714 44.0667C267.865 44.6 267.947 44.9278 267.947 44.9278Z" fill="#FFCDD3"/>
<path id="Vector_74" opacity="0.1" d="M267.947 44.9278L262.988 47.9416L262.556 46.8848C263.255 46.2194 265.737 43.9493 266.553 44.0423C266.942 44.0974 267.335 44.1088 267.727 44.0765C267.865 44.6 267.947 44.9278 267.947 44.9278Z" fill="black"/>
<path id="Vector_75" d="M268.452 46.6255L262.88 49.7371L262.767 48.3819L262.69 47.4426C262.69 47.4426 265.918 44.3065 266.872 44.4288C267.354 44.508 267.844 44.508 268.326 44.4288L268.391 45.5638L268.452 46.6255Z" fill="#8CFF79"/>
<path id="Vector_76" d="M329.351 67.7514C329.351 67.7514 305.06 70.8581 309.601 69.1849C312.76 68.0156 314.016 65.7601 314.279 63.216C314.495 61.0976 314.011 58.8128 313.377 56.8558C312.806 55.1197 312.083 53.4528 311.219 51.8801C311.219 51.8801 329.778 40.3044 326.07 50.8282C325.499 52.42 325.144 54.101 325.017 55.8137C324.906 57.5157 325.068 59.2265 325.496 60.8627C326.197 63.5177 327.53 65.9016 329.351 67.7514Z" fill="#FFCDD3"/>
<path id="Vector_77" opacity="0.1" d="M326.057 50.8134C325.486 52.4052 325.131 54.0862 325.004 55.7989C323.256 57.4672 321.34 57.3547 318.876 57.3547C316.985 57.3547 314.888 57.8733 313.377 56.841C312.806 55.1049 312.083 53.438 311.219 51.8653C311.219 51.8653 329.774 40.2897 326.057 50.8134Z" fill="black"/>
<path id="Vector_78" d="M318.548 58.0885C324.094 58.0885 328.591 52.9914 328.591 46.7037C328.591 40.416 324.094 35.3188 318.548 35.3188C313.001 35.3188 308.504 40.416 308.504 46.7037C308.504 52.9914 313.001 58.0885 318.548 58.0885Z" fill="#FFCDD3"/>
<path id="Vector_79" opacity="0.1" d="M329.351 67.7513C329.351 67.7513 305.06 70.858 309.601 69.1848C312.76 68.0155 314.016 65.76 314.279 63.2159C315.488 61.7482 317.917 60.6571 319.458 60.0896C320.883 59.5466 322.421 59.5175 323.861 60.0064C324.427 60.1998 324.966 60.4831 325.462 60.848C326.17 63.5127 327.516 65.9025 329.351 67.7513Z" fill="black"/>
<path id="Vector_80" opacity="0.1" d="M343.175 52.6335L338.531 53.8517L338.431 53.0689C338.929 52.2947 339.624 51.713 340.424 51.4031C341.223 51.0931 342.087 51.0701 342.899 51.337L343.175 52.6335Z" fill="black"/>
<path id="Vector_81" opacity="0.1" d="M268.452 46.6255L262.88 49.7371L262.767 48.3819C264.572 47.2819 266.448 46.3383 268.378 45.559L268.452 46.6255Z" fill="black"/>
<path id="Vector_82" opacity="0.1" d="M338.958 137.132C329.545 138.834 316.165 141.007 314.042 140.273C312.276 139.666 306.648 139.73 301.75 139.921C301.793 137.142 301.836 135.297 301.836 135.297L338.298 130.992C338.298 130.992 338.263 132.9 338.958 137.132Z" fill="black"/>
<path id="Vector_83" d="M348.341 134.627C348.341 134.627 317.365 140.654 314.042 139.519C310.718 138.384 293.649 139.612 293.649 139.612C285.966 145.449 289.173 136.838 289.173 136.838C289.173 136.838 288.5 132.342 289.427 128.707C290.051 126.038 290.477 123.315 290.701 120.566C290.701 120.566 290.532 114.822 291.46 113.481C292.388 112.141 293.489 102.576 293.489 102.576C293.489 102.576 294.33 96.0691 294.248 94.6356C294.166 93.2021 294.499 89.1805 294.499 89.1805L295.599 82.4826C289.268 81.5286 270.023 68.1329 270.023 68.1329C269.095 63.6367 261.922 53.113 261.922 53.113C261.817 52.228 261.618 51.3606 261.33 50.5297C260.825 48.9984 268.421 45.9357 268.421 45.9357C268.421 45.9357 274.075 53.7637 275.258 55.887C276.441 58.0104 280.489 61.9146 280.489 61.9146C281.118 61.8412 281.753 61.935 282.345 62.1885L282.444 62.2228C283.801 62.8266 285.073 63.6506 286.221 64.669C288.124 64.6179 289.97 65.4073 291.37 66.8707C291.37 66.8707 294.822 66.2934 295.422 66.9636C296.022 67.6339 298.966 66.9636 298.966 66.9636C298.966 66.9636 301.918 59.8842 303.86 61.939C305.802 63.9939 314.042 63.896 314.042 63.896C315.138 62.2424 317.81 61.0584 319.48 60.4713C320.905 59.9305 322.442 59.9015 323.882 60.3881C324.503 60.5982 325.088 60.9293 325.609 61.3666L330.619 66.9147C330.619 66.9147 332.052 64.806 331.884 64.3315C331.716 63.8569 333.572 63.4704 333.572 63.4704C333.572 63.4704 336.019 62.6093 336.947 62.3206C337.875 62.032 338.725 63.1719 338.803 63.2747C338.772 63.1524 338.138 60.8284 338.371 59.0671C338.604 57.3058 337.357 55.6424 337.357 55.6424C340.309 47.4132 346.977 54.3018 346.977 54.3018C346.977 54.3018 347.737 58.798 347.064 60.5202C346.39 62.2424 347.737 65.8775 347.568 66.8364C347.4 67.7954 347.909 69.4197 347.909 71.2397C347.909 73.0597 347.046 76.4991 346.559 78.0305C346.071 79.5618 342.001 83.0061 342.001 83.0061C342.001 83.0061 341.746 88.4613 339.972 91.6169C338.198 94.7726 339.312 105.565 339.312 105.565C339.312 105.565 340.999 113.985 343.11 116.667C345.221 119.348 348.341 134.627 348.341 134.627Z" fill="#3F3D56"/>
<path id="Vector_84" opacity="0.1" d="M303.187 71.6703C303.187 71.6703 302.259 68.5146 301.413 68.2455C300.573 67.8953 299.756 67.4801 298.966 67.0028L299.51 65.8237C299.51 65.8237 302.678 66.8022 303.187 67.8639C303.696 68.9256 303.187 71.6703 303.187 71.6703Z" fill="black"/>
<path id="Vector_85" opacity="0.1" d="M286.221 64.6885C286.052 65.667 278.538 66.5037 278.538 66.5037L282.336 62.1885L282.431 62.2276C283.793 62.8346 285.07 63.6637 286.221 64.6885Z" fill="black"/>
<path id="Vector_86" d="M264.485 52.3203C264.857 52.3203 265.159 51.9786 265.159 51.5571C265.159 51.1356 264.857 50.7939 264.485 50.7939C264.113 50.7939 263.812 51.1356 263.812 51.5571C263.812 51.9786 264.113 52.3203 264.485 52.3203Z" fill="#575988"/>
<path id="Vector_87" d="M265.348 53.8517C265.72 53.8517 266.022 53.51 266.022 53.0885C266.022 52.667 265.72 52.3253 265.348 52.3253C264.977 52.3253 264.675 52.667 264.675 53.0885C264.675 53.51 264.977 53.8517 265.348 53.8517Z" fill="#575988"/>
<path id="Vector_88" d="M266.194 55.2657C266.566 55.2657 266.868 54.9239 266.868 54.5024C266.868 54.0809 266.566 53.7392 266.194 53.7392C265.823 53.7392 265.521 54.0809 265.521 54.5024C265.521 54.9239 265.823 55.2657 266.194 55.2657Z" fill="#575988"/>
<path id="Vector_89" d="M267.079 56.7921C267.451 56.7921 267.752 56.4504 267.752 56.0289C267.752 55.6074 267.451 55.2657 267.079 55.2657C266.707 55.2657 266.406 55.6074 266.406 56.0289C266.406 56.4504 266.707 56.7921 267.079 56.7921Z" fill="#575988"/>
<path id="Vector_90" d="M346.641 56.567C346.943 56.567 347.189 56.2888 347.189 55.9457C347.189 55.6025 346.943 55.3243 346.641 55.3243C346.338 55.3243 346.092 55.6025 346.092 55.9457C346.092 56.2888 346.338 56.567 346.641 56.567Z" fill="#575988"/>
<path id="Vector_91" d="M346.727 57.981C347.03 57.981 347.275 57.7028 347.275 57.3596C347.275 57.0165 347.03 56.7383 346.727 56.7383C346.424 56.7383 346.179 57.0165 346.179 57.3596C346.179 57.7028 346.424 57.981 346.727 57.981Z" fill="#575988"/>
<path id="Vector_92" d="M346.8 59.39C347.103 59.39 347.348 59.1118 347.348 58.7687C347.348 58.4255 347.103 58.1473 346.8 58.1473C346.497 58.1473 346.252 58.4255 346.252 58.7687C346.252 59.1118 346.497 59.39 346.8 59.39Z" fill="#575988"/>
<path id="Vector_93" opacity="0.1" d="M303.217 97.6004C303.135 97.4879 322.164 124.724 336.934 108.985C336.947 108.99 313.61 112.576 303.217 97.6004Z" fill="black"/>
<path id="Vector_94" opacity="0.1" d="M292.298 111.759C292.298 111.759 303.683 112.112 304.874 115.825V119.69C304.55 119.894 304.186 120.001 303.815 120.001C303.444 120.001 303.079 119.894 302.755 119.69C301.607 118.986 294.723 115.023 292.298 116.931V111.759Z" fill="black"/>
<path id="Vector_95" d="M292.509 111.759C292.509 111.759 303.398 112.097 304.538 115.639V119.318C304.228 119.514 303.878 119.616 303.524 119.616C303.169 119.616 302.82 119.514 302.509 119.318C301.413 118.653 294.831 114.871 292.509 116.691V111.759Z" fill="#3F3D56"/>
<path id="Vector_96" opacity="0.1" d="M298.513 83.7351C299.676 86.7873 301.158 89.67 302.928 92.3214C304.853 95.2521 307.185 97.8084 309.834 99.8901C309.834 99.8901 298.703 85.5062 298.513 83.7351Z" fill="black"/>
<path id="Vector_97" opacity="0.1" d="M294.788 68.7396C294.788 68.7396 296.687 78.0354 301.581 81.191L294.788 68.7396Z" fill="black"/>
<path id="Vector_98" opacity="0.1" d="M291.875 69.6789C291.827 69.5077 290.187 77.0177 298.185 81.191C298.185 81.191 294.788 79.8847 291.875 69.6789Z" fill="black"/>
<path id="Vector_99" opacity="0.1" d="M341.591 63.446C341.466 63.446 345.536 66.3815 346.645 67.7514C346.645 67.7514 343.995 63.2503 341.591 63.446Z" fill="black"/>
<path id="Vector_100" d="M315.833 57.0221C315.834 57.2704 315.881 57.5157 315.971 57.7425C316.06 57.9692 316.19 58.1725 316.352 58.3394C316.515 58.5063 316.706 58.6333 316.913 58.7122C317.121 58.7911 317.341 58.8204 317.559 58.798C320.619 59.0133 323.809 59.165 326.623 57.8195C327.151 57.606 327.625 57.25 328.004 56.7823C328.505 56.0827 328.604 55.1336 328.807 54.2627C329.204 52.5601 330.05 51.0483 330.658 49.4289C331.688 46.6929 332.033 43.6883 331.655 40.7447C331.576 39.8424 331.313 38.9733 330.887 38.2055C330.076 36.8894 328.595 36.3561 327.521 35.3091C326.446 34.2622 325.755 32.6623 324.499 31.8844C323.369 31.1701 321.983 31.2582 320.71 31.5028C318.206 31.9849 315.806 33.0062 313.64 34.5117C312.911 35.0009 312.112 35.6027 311.275 35.4217C310.541 35.2651 310.006 34.5655 309.549 33.9099C308.96 35.4756 308.713 37.1789 308.828 38.8758C308.86 39.1248 308.852 39.3782 308.806 39.6243C308.701 39.9219 308.54 40.1905 308.336 40.412C307.581 41.3905 307.11 42.9806 307.857 43.9884C308.181 44.4239 308.681 44.6636 308.996 45.1088C309.562 45.9063 309.372 47.0658 309.359 48.0835C309.328 48.4388 309.407 48.7953 309.583 49.0913C309.747 49.2639 309.946 49.3856 310.163 49.4448C310.38 49.5039 310.607 49.4984 310.822 49.4289C311.25 49.2829 311.698 49.2347 312.143 49.287C312.611 49.4595 313.015 49.8038 313.291 50.2655C314.685 52.3253 315.237 54.566 315.833 57.0221Z" fill="#2D293D"/>
<path id="Vector_101" opacity="0.1" d="M328.362 55.9164C327.983 56.3841 327.509 56.74 326.981 56.9536C324.15 58.2892 320.965 58.1376 317.917 57.9321C317.59 57.9358 317.267 57.8537 316.972 57.6924C316.506 57.3841 316.329 56.7383 316.187 56.1512C315.591 53.705 315.043 51.4593 313.627 49.4192C313.355 48.9485 312.95 48.5954 312.479 48.4162C312.035 48.3687 311.587 48.4168 311.159 48.5581C310.944 48.6282 310.718 48.6345 310.501 48.5762C310.284 48.5179 310.084 48.3971 309.92 48.2254C309.744 47.9294 309.664 47.5729 309.695 47.2175C309.695 46.1901 309.898 45.0404 309.333 44.2429C309.018 43.7977 308.517 43.5579 308.193 43.1176C307.982 42.793 307.853 42.4095 307.819 42.0081C307.784 41.6066 307.847 41.2021 307.999 40.8377C307.46 41.8162 307.231 43.0442 307.857 43.8857C308.181 44.3212 308.681 44.5609 308.996 45.0061C309.562 45.8085 309.372 46.9631 309.359 47.9808C309.326 48.3356 309.404 48.6923 309.579 48.9886C309.743 49.162 309.943 49.2842 310.161 49.3434C310.379 49.4026 310.607 49.3966 310.822 49.3262C311.25 49.1802 311.698 49.132 312.143 49.1843C312.611 49.3568 313.015 49.7011 313.291 50.1628C314.702 52.203 315.254 54.4437 315.85 56.8998C315.92 57.5041 316.186 58.0572 316.597 58.4507C316.893 58.6123 317.218 58.6928 317.546 58.6855C320.606 58.9008 323.796 59.0574 326.61 57.707C327.138 57.4949 327.613 57.1387 327.991 56.6698C328.181 56.3942 328.327 56.0829 328.423 55.75C328.427 55.8136 328.397 55.8675 328.362 55.9164Z" fill="black"/>
<path id="Vector_102" opacity="0.1" d="M308.828 39.3259C308.964 39.159 309.068 38.9626 309.134 38.7486C309.173 38.501 309.173 38.2476 309.134 38.0001C309.05 36.6052 309.21 35.2052 309.605 33.8806L309.549 33.8072C308.958 35.3705 308.711 37.0728 308.828 38.7682C308.841 38.9538 308.841 39.1403 308.828 39.3259Z" fill="black"/>
<path id="Vector_103" opacity="0.1" d="M314.042 63.9205C314.042 63.9205 326.588 65.809 327.715 63.671L314.042 63.9205Z" fill="black"/>
<path id="Vector_104" opacity="0.1" d="M338.431 58.0349C338.431 58.0349 345.406 58.0348 346.938 61.0095L338.431 58.0349Z" fill="black"/>
<path id="Vector_105" d="M377.453 322.303C375.384 324.399 372.696 325.538 369.921 325.493C369.213 325.493 368.234 325.645 368.229 326.447C368.246 326.682 368.318 326.908 368.436 327.103C369.312 328.757 370.695 329.989 372.321 330.562C373.831 331.08 375.446 330.992 377.021 330.899L381.618 330.63C382.481 330.576 383.344 330.527 384.207 330.405C385.07 330.283 386.011 330.082 386.913 329.916C389.13 329.559 391.371 329.441 393.607 329.564C394.203 329.588 394.902 329.564 395.256 329.074C395.61 328.585 395.429 327.651 395.295 326.917C395.019 325.405 395.295 323.82 395.04 322.303C394.609 319.642 392.576 317.601 390.349 316.638C388.277 315.747 384.609 314.725 382.649 316.212C380.582 317.773 379.317 320.38 377.453 322.303Z" fill="#3F3D56"/>
<path id="Vector_106" d="M382.019 233.132C382.425 235.319 384.293 236.993 384.345 239.224C384.393 241.014 383.266 242.516 382.455 244.048C381.69 245.634 381.045 247.29 380.526 248.999C378.998 253.448 377.102 257.724 374.863 261.768C373.784 263.725 372.576 265.814 372.822 268.089C372.993 269.153 373.325 270.176 373.801 271.113L377.038 278.403C377.747 279.858 378.302 281.404 378.691 283.007C378.972 284.391 378.998 285.825 379.162 287.234C379.671 291.705 381.523 296.207 380.426 300.541C380.331 300.913 379.995 301.363 379.731 301.104C380.802 303.369 381.661 305.649 381.579 308.218C381.536 309.563 381.173 310.967 381.609 312.22C381.795 312.743 382.118 313.232 382.114 313.795C382.114 314.167 381.963 314.514 381.928 314.876C381.838 315.909 382.675 316.77 383.543 317.098C384.41 317.425 385.355 317.401 386.231 317.699C387.915 318.272 389.119 319.916 390.547 321.056C392.013 322.2 393.74 322.837 395.519 322.89C395.773 322.921 396.029 322.863 396.253 322.724C396.38 322.598 396.482 322.443 396.552 322.269C396.622 322.096 396.658 321.907 396.659 321.716C396.737 320.802 396.616 319.881 396.306 319.033C395.996 318.185 395.506 317.436 394.881 316.853C394.606 316.658 394.379 316.389 394.22 316.07C394.14 315.788 394.119 315.488 394.16 315.194C394.42 311.184 394.357 307.156 393.97 303.159C393.796 301.892 393.739 300.608 393.802 299.328C393.892 298.261 394.177 297.205 394.074 296.143C393.97 295.081 393.491 294.113 393.21 293.09C392.71 291.27 392.848 289.313 392.779 287.41C392.692 284.103 392.023 280.854 391.359 277.625C391.096 276.358 390.806 275.032 390.017 274.092C389.343 273.295 388.256 272.532 388.51 271.47C388.651 271.079 388.861 270.724 389.127 270.428C389.44 269.983 389.669 269.471 389.801 268.923C389.933 268.374 389.966 267.801 389.896 267.238C390.18 267.32 390.48 267.288 390.745 267.147C391.01 267.006 391.224 266.765 391.35 266.465C396.607 263.652 400.845 258.025 402.736 251.788C402.847 251.324 403.019 250.882 403.245 250.476C403.733 249.703 404.579 249.371 405.33 248.945C407.686 247.6 409.313 245.08 410.807 242.614C411.67 241.186 412.533 239.708 412.922 238.025C413.126 236.936 413.223 235.826 413.211 234.713L413.345 228.964C413.374 228.586 413.342 228.204 413.25 227.839C413.122 227.497 412.935 227.188 412.702 226.929C411.266 225.208 409.381 224.055 407.324 223.641C405.943 223.362 404.531 223.416 403.133 223.284C400.422 223.029 397.747 222.075 395.036 222.305C390.776 222.663 386.982 226.009 384.975 230.285C384.272 231.792 383.53 233.103 382.019 233.132Z" fill="#464353"/>
<path id="Vector_107" d="M358.367 195.754C358.425 196.641 358.319 197.533 358.056 198.371C357.724 199.174 356.891 199.8 356.162 199.472C356.382 198.909 355.799 198.268 355.255 198.337C354.988 198.407 354.739 198.549 354.531 198.752C354.323 198.955 354.161 199.212 354.06 199.501C353.699 200.323 353.578 201.253 353.714 202.158C353.887 203.283 354.461 204.365 354.31 205.495C354.189 206.434 353.581 207.369 353.904 208.239C354.114 208.637 354.378 208.996 354.686 209.301C355.112 209.897 355.321 210.655 355.268 211.419C355.216 212.184 354.907 212.897 354.405 213.411L362.571 213.597C362.273 215.143 362.886 216.723 363.585 218.098C365.544 221.877 368.248 225.092 371.486 227.488C374.724 229.884 378.407 231.397 382.248 231.909C382.04 232.047 381.862 232.235 381.726 232.46C381.59 232.685 381.501 232.941 381.463 233.21C381.425 233.48 381.441 233.755 381.509 234.016C381.577 234.278 381.695 234.519 381.855 234.722C382.52 235.471 383.646 235.378 384.479 234.894C385.312 234.409 385.964 233.607 386.723 232.986C388.064 231.909 389.7 231.409 391.337 231.577C392.36 231.689 393.353 232.066 394.38 232.125C397.401 232.306 399.991 229.84 402.9 228.832C405.019 228.093 407.423 228.093 409.201 226.591C409.969 225.945 410.6 224.884 410.375 223.837C410.189 223.235 409.895 222.684 409.512 222.217C408.489 220.715 407.885 218.91 407.151 217.202C405.697 213.822 403.696 210.781 401.251 208.239C399.406 206.411 397.45 204.73 395.399 203.21C394.903 202.795 394.374 202.433 393.819 202.129C393.102 201.772 392.308 201.6 391.661 201.15C390.703 200.465 390.15 199.257 389.412 198.283C387.794 196.14 385.308 195.157 383.314 193.474C381.976 192.344 380.793 190.856 379.196 190.313C378.419 190.044 377.595 190.025 376.818 189.76C375.053 189.154 373.767 187.378 372.036 186.659C370.668 186.091 369.157 186.238 367.72 186.037C366.1 185.811 364.552 185.143 363.21 184.09C362.777 183.691 362.292 183.37 361.772 183.141C359.584 182.387 359.407 187.006 359.183 188.606C358.894 190.984 358.367 193.347 358.367 195.754Z" fill="#8CFF79"/>
<path id="Vector_108" d="M360.499 211.243C360.866 215.754 357.862 220.123 358.738 224.541C358.924 225.481 359.282 226.376 359.412 227.33C359.778 229.947 358.397 232.428 357.081 234.62L345.773 253.431C345.319 254.257 344.777 255.016 344.159 255.692C342.001 257.869 338.755 257.649 335.915 258.295C333.92 258.759 332.036 259.704 330.391 261.064C330.317 261.129 330.268 261.224 330.255 261.329C330.242 261.434 330.266 261.541 330.322 261.626C330.79 262.35 331.412 262.929 332.129 263.311C332.846 263.693 333.635 263.866 334.426 263.813C334.724 264.254 334.426 264.909 334.016 265.227C333.412 265.716 332.575 265.829 332.454 266.998C332.413 267.405 332.485 267.815 332.661 268.172C333.118 268.961 333.826 269.518 334.638 269.728C338.552 271.088 342.782 268.701 345.712 265.457C348.643 262.213 350.745 258.118 353.619 254.821C355.212 252.991 357.02 251.43 358.661 249.659C361.932 246.122 364.479 241.831 366.93 237.531C367.668 236.234 368.415 234.903 368.721 233.402C369.028 231.9 368.885 230.378 369.235 228.925C369.692 227.022 370.922 225.5 371.945 223.905C373.952 220.774 375.294 216.943 375.027 213.083C374.759 209.223 372.653 205.416 369.442 204.105C368.446 203.657 367.349 203.581 366.313 203.89C364.996 204.35 364.025 205.583 363.128 206.767L360.97 209.575C360.444 210.197 360.032 210.93 359.757 211.733C359.618 212.137 359.584 212.578 359.661 213.003C359.737 213.429 359.921 213.82 360.188 214.13" fill="#FBBEBE"/>
<path id="Vector_109" d="M366.231 192.74C364.746 192.838 363.11 193.004 362.062 194.208C361.622 194.76 361.266 195.392 361.009 196.077C359.99 198.43 358.997 200.891 358.924 203.513C358.863 205.607 359.399 207.657 359.679 209.727C359.912 211.449 359.321 213.205 359.209 214.947C361.052 214.306 363.486 213.435 365.156 212.354C366.296 211.615 367.396 210.774 368.639 210.304C370.413 209.634 373.387 210.793 375.074 211.723C375.165 210.382 374.276 208.044 374.371 206.698C374.384 206.132 374.473 205.571 374.634 205.035C374.887 204.468 375.186 203.929 375.528 203.425C376.17 202.241 376.465 200.857 376.372 199.471C376.278 198.085 375.8 196.769 375.005 195.71C373.508 193.802 371.164 193.087 368.928 192.774C367.52 192.589 366.102 192.534 364.686 192.608" fill="#8CFF79"/>
</g>
<defs>
<linearGradient id="paint0_linear" x1="304.805" y1="267.218" x2="304.805" y2="28.1417" gradientUnits="userSpaceOnUse">
<stop stop-color="#808080" stop-opacity="0.25"/>
<stop offset="0.54" stop-color="#808080" stop-opacity="0.12"/>
<stop offset="1" stop-color="#808080" stop-opacity="0.1"/>
</linearGradient>
</defs>
</svg>
